<svg width="19250" height="10390" viewBox="0 0 19250 10390" fill="none" xmlns="http://www.w3.org/2000/svg">
<rect y="10" width="19200" height="10380" fill="white"/>
<path d="M8203.13 3513.47C7242.87 1906.29 7933.91 -60.5906 8203.13 1.43058C8472.34 63.4518 19200 1.43058 19200 1.43058V10353.2C16874.7 10465.6 15812.9 10376.5 15420.9 9273.01C15183.1 7278.14 14799.5 6303.47 12175.2 5679.06C12175.2 5679.06 9163.39 5120.64 8203.13 3513.47Z" fill="#F2EEFF"/>
<path d="M8482.83 3506.56C7542.62 1907.12 8219.24 -50.299 8482.83 11.4237C8746.42 73.1464 19250 11.4237 19250 11.4237V10313.4C16973.2 10425.3 15933.6 10336.6 15549.9 9238.38C15317 7253.12 14941.4 6283.13 12371.9 5661.73C12371.9 5661.73 9423.03 5106 8482.83 3506.56Z" fill="#32F18F"/>
</svg>
